HIERARCHY
ROOT Hips
{
  OFFSET 52.4318 86.5627 -2.42574
  CHANNELS 6 Xposition Yposition Zposition Zrotation Xrotation Yrotation
  JOINT spine
  {
    OFFSET 0 6.84637 0.3937
    CHANNELS 3 Zrotation Xrotation Yrotation
    JOINT spine1
    {
      OFFSET 0 9.49621 0
      CHANNELS 3 Zrotation Xrotation Yrotation
      JOINT spine2
      {
        OFFSET 0 9.09909 0
        CHANNELS 3 Zrotation Xrotation Yrotation
        JOINT Neck
        {
          OFFSET 0 23.3612 1.11378
          CHANNELS 3 Zrotation Xrotation Yrotation
          JOINT Head
          {
            OFFSET 0 7.05802 0
            CHANNELS 3 Zrotation Xrotation Yrotation
            End Site
            {
              OFFSET 0 17.0844 -5.63419
            }
          }
        }
        JOINT RightShoulder
        {
          OFFSET -3.83136 9.82631 -0.533491
          CHANNELS 3 Zrotation Xrotation Yrotation
          JOINT RightArm
          {
            OFFSET 0 12.8881 0
            CHANNELS 3 Zrotation Xrotation Yrotation
            JOINT RightArmRoll
            {
              OFFSET 0 6.50617 0
              CHANNELS 3 Zrotation Xrotation Yrotation
              JOINT RightForeArm
              {
                OFFSET 0 18.9501 0
                CHANNELS 3 Zrotation Xrotation Yrotation
                JOINT RightForeArmRoll
                {
                  OFFSET 0 7.30092 0
                  CHANNELS 3 Zrotation Xrotation Yrotation
                  JOINT RightHand
                  {
                    OFFSET 0 14.6514 0
                    CHANNELS 3 Zrotation Xrotation Yrotation
                    End Site
                    {
                      OFFSET 0 0 0
                    }
                  }
                }
              }
            }
          }
        }
        JOINT LeftShoulder
        {
          OFFSET 3.83136 9.82631 -0.533491
          CHANNELS 3 Zrotation Xrotation Yrotation
          JOINT LeftArm
          {
            OFFSET 0 12.8881 0
            CHANNELS 3 Zrotation Xrotation Yrotation
            JOINT LeftArmRoll
            {
              OFFSET 0 6.50617 0
              CHANNELS 3 Zrotation Xrotation Yrotation
              JOINT LeftForeArm
              {
                OFFSET 0 18.9501 0
                CHANNELS 3 Zrotation Xrotation Yrotation
                JOINT LeftForeArmRoll
                {
                  OFFSET 0 7.30092 0
                  CHANNELS 3 Zrotation Xrotation Yrotation
                  JOINT LeftHand
                  {
                    OFFSET 0 14.6514 0
                    CHANNELS 3 Zrotation Xrotation Yrotation
                    End Site
                    {
                      OFFSET 0 0 0
                    }
                  }
                }
              }
            }
          }
        }
      }
    }
  }
  JOINT RightUpLeg
  {
    OFFSET -6.06837 -1.11278 -0.933477
    CHANNELS 3 Zrotation Xrotation Yrotation
    JOINT RightUpLegRoll
    {
      OFFSET 0 17.1796 0
      CHANNELS 3 Zrotation Xrotation Yrotation
      JOINT RightLeg
      {
        OFFSET 0 -21.2743 0
        CHANNELS 3 Zrotation Xrotation Yrotation
        JOINT RightLegRoll
        {
          OFFSET 0 21.3439 0
          CHANNELS 3 Zrotation Xrotation Yrotation
          JOINT RightFoot
          {
            OFFSET 0 17.7652 0
            CHANNELS 3 Zrotation Xrotation Yrotation
            JOINT RightToeBase
            {
              OFFSET 0 14.8508 0
              CHANNELS 3 Zrotation Xrotation Yrotation
              End Site
              {
                OFFSET 0.0062947 7.19214 -0.829004
              }
            }
          }
        }
      }
    }
  }
  JOINT LeftUpLeg
  {
    OFFSET 6.06837 -1.11278 -0.933477
    CHANNELS 3 Zrotation Xrotation Yrotation
    JOINT LeftUpLegRoll
    {
      OFFSET 0 17.1797 0
      CHANNELS 3 Zrotation Xrotation Yrotation
      JOINT LeftLeg
      {
        OFFSET 0 21.2742 0
        CHANNELS 3 Zrotation Xrotation Yrotation
        JOINT LeftLegRoll
        {
          OFFSET 0 21.5412 0
          CHANNELS 3 Zrotation Xrotation Yrotation
          JOINT LeftFoot
          {
            OFFSET 0 17.5679 0
            CHANNELS 3 Zrotation Xrotation Yrotation
            JOINT LeftToeBase
            {
              OFFSET 0 14.8508 0
              CHANNELS 3 Zrotation Xrotation Yrotation
              End Site
              {
                OFFSET -0.0282102 7.19213 -0.829005
              }
            }
          }
        }
      }
    }
  }
}
MOTION
Frames: 12
Frame Time: 0.00208333
52.4694 86.6359 5.30515 0.578596 2.98149 0.141482 1.07428 -2.13595 0.918761 2.15395 -0.259616 1.72252 2.13388 1.38448 1.68685 -15.5482 -1.74769 -3.22264 16.1753 12.1665 -6.30706 49.4033 -7.22867 -4.09334 145.925 52.242 -40.2066 -1.69394e-005 -1.41994e-006 -4.89893e-006 23.1918 11.16 -1.39377 -2.12399e-007 -2.70325e-006 -3.00471 8.02977 -4.95134 0.697688 -68.5115 -7.34375 4.86519 -140.813 56.8658 22.0995 -1.6458e-005 -4.39558e-006 2.91775e-006 -20.7779 0.475514 -0.0726881 4.9848e-006 4.83851e-007 3.04458 -8.02949 -4.95142 -0.697704 179.21 19.2476 -2.40362 180 7.0153e-015 178.851 175.838 23.0468 -179.534 1.64292e-007 1.71522e-006 0.616121 -23.1362 70.322 21.8605 8.1356 25.2337 -3.48736 -179.272 15.7247 2.55524 4.54188e-006 -4.6773e-006 -0.954206 -0.612913 -23.9933 0.841728 -2.57903e-006 -9.23796e-006 -0.679464 23.1786 74.3479 -26.4775 -8.12525 25.2333 3.48295 
52.47 86.6983 5.31489 0.579809 3.00869 0.144886 1.07318 -2.136 0.920375 2.15372 -0.259132 1.72746 2.13359 1.38497 1.69179 -15.5687 -1.77177 -3.23077 16.1618 12.1495 -6.31338 49.4419 -7.24573 -4.10764 145.402 52.1667 -39.6659 -1.69394e-005 -1.41994e-006 -4.89893e-006 23.1493 11.1049 -1.38209 -2.12399e-007 -2.70325e-006 -3.00471 8.02977 -4.95134 0.697688 -68.5095 -7.34814 4.8674 -140.385 56.6673 22.0832 -1.6458e-005 -4.39558e-006 2.91775e-006 -21.037 0.81461 -0.0313373 4.9848e-006 4.83851e-007 3.03344 -8.02949 -4.95142 -0.697704 179.209 19.2488 -2.40886 180 7.0153e-015 178.852 175.841 23.0122 -179.537 1.64292e-007 1.71522e-006 0.615259 -23.1374 70.3266 21.8652 8.1356 25.2337 -3.48736 -179.277 15.7161 2.58807 4.54188e-006 -4.6773e-006 -0.953881 -0.581807 -23.9362 0.852186 -2.57903e-006 -9.23796e-006 -0.678837 23.1138 74.3299 -26.4423 -8.12525 25.2333 3.48295 
52.4679 86.6862 5.32116 0.580808 3.03548 0.147834 1.07209 -2.13601 0.922057 2.15362 -0.258535 1.7326 2.13343 1.38556 1.69694 -15.5894 -1.79698 -3.23887 16.1485 12.1334 -6.3197 49.481 -7.26288 -4.12203 144.886 52.0889 -39.1296 -1.69394e-005 -1.41994e-006 -4.89893e-006 23.107 11.0475 -1.36989 -2.12399e-007 -2.70325e-006 -3.00471 8.02977 -4.95134 0.697688 -68.5069 -7.35253 4.86958 -139.965 56.4652 22.0882 -1.6458e-005 -4.39558e-006 2.91775e-006 -21.3081 1.16446 0.0112338 4.9848e-006 4.83851e-007 3.02229 -8.02949 -4.95142 -0.697704 179.209 19.2485 -2.41489 180 7.0153e-015 178.853 175.845 22.9751 -179.539 1.64292e-007 1.71522e-006 0.614356 -23.1386 70.3314 21.87 8.1356 25.2337 -3.48736 -179.281 15.7057 2.62123 4.54188e-006 -4.6773e-006 -0.953518 -0.549675 -23.8759 0.862953 -2.57903e-006 -9.23796e-006 -0.678104 23.0448 74.3103 -26.4042 -8.12525 25.2333 3.48295 
52.4719 86.6304 5.32998 0.581655 3.06199 0.150463 1.07101 -2.13601 0.923787 2.15361 -0.257859 1.73789 2.13335 1.38624 1.70223 -15.6103 -1.82297 -3.24696 16.1354 12.1179 -6.32602 49.5204 -7.28009 -4.13649 144.376 52.0083 -38.5969 -1.69394e-005 -1.41994e-006 -4.89893e-006 23.065 10.9884 -1.35734 -2.12399e-007 -2.70325e-006 -3.00471 8.02977 -4.95134 0.697688 -68.5039 -7.35691 4.87175 -139.551 56.2606 22.108 -1.6458e-005 -4.39558e-006 2.91775e-006 -21.5878 1.52184 0.0546664 4.9848e-006 4.83851e-007 3.01114 -8.02949 -4.95142 -0.697704 179.209 19.247 -2.4215 180 7.0153e-015 178.854 175.85 22.9365 -179.542 1.64292e-007 1.71522e-006 0.613425 -23.1398 70.3363 21.8749 8.1356 25.2337 -3.48736 -179.285 15.694 2.65462 4.54188e-006 -4.6773e-006 -0.953127 -0.516835 -23.8133 0.873931 -2.57903e-006 -9.23796e-006 -0.677297 22.9729 74.2895 -26.3642 -8.12525 25.2333 3.48295 
52.5243 86.6577 5.34785 0.582416 3.08833 0.15291 1.06995 -2.136 0.925543 2.15365 -0.257138 1.74325 2.13333 1.38695 1.70759 -15.6311 -1.8494 -3.25503 16.1223 12.1029 -6.33234 49.56 -7.29733 -4.15099 143.87 51.9247 -38.0672 -1.69394e-005 -1.41994e-006 -4.89893e-006 23.0232 10.9284 -1.34458 -2.12399e-007 -2.70325e-006 -3.00471 8.02977 -4.95134 0.697688 -68.5008 -7.36129 4.87391 -139.139 56.0546 22.136 -1.6458e-005 -4.39558e-006 2.91775e-006 -21.8727 1.88352 0.0986017 4.9848e-006 4.83851e-007 2.99999 -8.02949 -4.95142 -0.697704 179.21 19.2449 -2.42842 180 7.01531e-015 178.854 175.855 22.8968 -179.545 1.64292e-007 1.71522e-006 0.612479 -23.141 70.3413 21.8799 8.1356 25.2337 -3.48736 -179.289 15.6816 2.68815 4.54188e-006 -4.6773e-006 -0.952721 -0.483602 -23.7493 0.885026 -2.57903e-006 -9.23796e-006 -0.676447 22.8994 74.268 -26.3231 -8.12525 25.2333 3.48295 
52.5198 86.6961 5.35455 0.583153 3.11464 0.155311 1.06888 -2.13598 0.927307 2.1537 -0.256406 1.74864 2.13332 1.38768 1.71298 -15.652 -1.87595 -3.26311 16.1093 12.0879 -6.33866 49.5996 -7.31458 -4.16549 143.367 51.838 -37.5396 -1.69394e-005 -1.41994e-006 -4.89893e-006 22.9814 10.8681 -1.33178 -2.12399e-007 -2.70325e-006 -3.00471 8.02977 -4.95134 0.697688 -68.4975 -7.36567 4.87607 -138.728 55.8484 22.1662 -1.6458e-005 -4.39558e-006 2.91775e-006 -22.1593 2.24627 0.142681 4.9848e-006 4.83851e-007 2.99999 -8.02949 -4.95142 -0.697704 179.21 19.2427 -2.43543 180 7.01531e-015 178.855 175.859 22.8569 -179.547 1.64292e-007 1.71522e-006 0.611528 -23.1422 70.3463 21.885 8.1356 25.2337 -3.48736 -179.292 15.6689 2.7217 4.54188e-006 -4.6773e-006 -0.952311 -0.450292 -23.685 0.896143 -2.57903e-006 -9.23796e-006 -0.675587 22.8256 74.2463 -26.2819 -8.12525 25.2333 3.48295 
52.5339 86.6907 5.37103 0.58393 3.14102 0.157804 1.06781 -2.13597 0.929057 2.15372 -0.255696 1.75399 2.13328 1.38839 1.71833 -15.6729 -1.90228 -3.2712 16.0962 12.0727 -6.34499 49.6391 -7.33182 -4.17998 142.866 51.7478 -37.0134 -1.69394e-005 -1.41994e-006 -4.89893e-006 22.9395 10.8083 -1.31909 -2.12399e-007 -2.70325e-006 -3.00471 8.02977 -4.95134 0.697688 -68.4944 -7.37004 4.87824 -138.315 55.6429 22.1922 -1.6458e-005 -4.39558e-006 2.91775e-006 -22.4441 2.60687 0.186544 4.9848e-006 4.83851e-007 2.99999 -8.02949 -4.95142 -0.697704 179.211 19.2407 -2.44227 180 7.01531e-015 178.856 175.864 22.8175 -179.55 1.64292e-007 1.71522e-006 0.610585 -23.1434 70.3513 21.8899 8.1356 25.2337 -3.48736 -179.296 15.6567 2.75518 4.54188e-006 -4.6773e-006 -0.951909 -0.417218 -23.6214 0.907187 -2.57903e-006 -9.23796e-006 -0.674747 22.7527 74.225 -26.2413 -8.12525 25.2333 3.48295 
52.5444 86.7053 5.37752 0.584811 3.16761 0.160525 1.06673 -2.13597 0.930773 2.15368 -0.255043 1.75923 2.13318 1.38904 1.72358 -15.6937 -1.92804 -3.27929 16.083 12.0571 -6.35131 49.6784 -7.349 -4.19443 142.367 51.6538 -36.4881 -1.69394e-005 -1.41994e-006 -4.89893e-006 22.8976 10.7497 -1.30667 -2.12399e-007 -2.70325e-006 -3.00471 8.02977 -4.95134 0.697688 -68.4916 -7.37443 4.88041 -137.899 55.4393 22.2081 -1.6458e-005 -4.39558e-006 2.91775e-006 -22.7237 2.96208 0.229831 4.9848e-006 4.83851e-007 2.99999 -8.02949 -4.95142 -0.697704 179.211 19.2396 -2.44872 180 7.01531e-015 178.857 175.868 22.7793 -179.553 1.64292e-007 1.71522e-006 0.609663 -23.1446 70.3562 21.8949 8.1356 25.2337 -3.48736 -179.3 15.6453 2.78849 4.54188e-006 -4.6773e-006 -0.951526 -0.384692 -23.5594 0.918064 -2.57903e-006 -9.23796e-006 -0.673961 22.6821 74.2045 -26.2023 -8.12525 25.2333 3.48295 
52.5308 86.7012 5.38978 0.585857 3.19453 0.16361 1.06564 -2.136 0.932435 2.15354 -0.25448 1.76431 2.13298 1.38961 1.72866 -15.7144 -1.95291 -3.28741 16.0696 12.0407 -6.35763 49.7173 -7.36612 -4.2088 141.868 51.5559 -35.9627 -1.69394e-005 -1.41994e-006 -4.89893e-006 22.8554 10.693 -1.29467 -2.12399e-007 -2.70325e-006 -3.00471 8.02977 -4.95134 0.697688 -68.4892 -7.37882 4.8826 -137.476 55.2386 22.2079 -1.6458e-005 -4.39558e-006 2.91775e-006 -22.9945 3.30869 0.272179 4.9848e-006 4.83851e-007 2.99999 -8.02949 -4.95142 -0.697704 179.211 19.2397 -2.45451 180 7.01531e-015 178.857 175.872 22.743 -179.556 1.64292e-007 1.71522e-006 0.608772 -23.1458 70.3609 21.8996 8.1356 25.2337 -3.48736 -179.304 15.6354 2.82153 4.54188e-006 -4.6773e-006 -0.951174 -0.353026 -23.5 0.928681 -2.57903e-006 -9.23796e-006 -0.67326 22.615 74.1853 -26.1657 -8.12525 25.2333 3.48295 
52.5478 86.69 5.39887 0.587131 3.22189 0.167197 1.06453 -2.13605 0.934022 2.15326 -0.25404 1.76917 2.13264 1.39004 1.73353 -15.7349 -1.97654 -3.29554 16.056 12.0233 -6.36394 49.7557 -7.38314 -4.22307 141.368 51.4537 -35.4368 -1.69394e-005 -1.41994e-006 -4.89893e-006 22.8129 10.6388 -1.28324 -2.12399e-007 -2.70325e-006 -3.00471 8.02977 -4.95134 0.697688 -68.4873 -7.38322 4.88482 -137.045 55.0418 22.1859 -1.6458e-005 -4.39558e-006 2.91775e-006 -23.253 3.64347 0.313224 4.9848e-006 4.83851e-007 2.99999 -8.02949 -4.95142 -0.697704 179.21 19.2415 -2.45942 180 7.01532e-015 178.858 175.876 22.7093 -179.558 1.64292e-007 1.71522e-006 0.607926 -23.147 70.3655 21.9043 8.1356 25.2337 -3.48736 -179.309 15.6275 2.8542 4.54188e-006 -4.6773e-006 -0.950865 -0.322529 -23.4443 0.938944 -2.57903e-006 -9.23796e-006 -0.672676 22.5526 74.168 -26.1323 -8.12525 25.2333 3.48295 
52.5439 86.704 5.40853 0.588696 3.24982 0.171423 1.06339 -2.13614 0.935514 2.1528 -0.253759 1.77374 2.13212 1.39032 1.7381 -15.7553 -1.9986 -3.30371 16.0422 12.0046 -6.37025 49.7935 -7.40003 -4.23721 140.867 51.3469 -34.9096 -1.69394e-005 -1.41994e-006 -4.89893e-006 22.77 10.588 -1.27255 -2.12399e-007 -2.70325e-006 -3.00471 8.02977 -4.95134 0.697688 -68.4862 -7.38763 4.88706 -136.605 54.85 22.1363 -1.6458e-005 -4.39558e-006 2.91775e-006 -23.4958 3.96319 0.3526 4.9848e-006 4.83851e-007 2.99999 -8.02949 -4.95142 -0.697704 179.208 19.2456 -2.4632 180 7.01532e-015 178.859 175.879 22.6789 -179.56 1.64292e-007 1.71522e-006 0.607136 -23.1482 70.3698 21.9086 8.1356 25.2337 -3.48736 -179.316 15.6221 2.8864 4.54188e-006 -4.6773e-006 -0.95061 -0.29351 -23.3932 0.948761 -2.57903e-006 -9.23796e-006 -0.67224 22.4963 74.1529 -26.103 -8.12525 25.2333 3.48295 
52.5534 86.688 5.41561 0.590614 3.27844 0.176423 1.06222 -2.13628 0.936892 2.15212 -0.253668 1.77796 2.1314 1.39041 1.74233 -15.7753 -2.01875 -3.31192 16.028 11.9843 -6.37656 49.8304 -7.41677 -4.2512 140.363 51.2351 -34.3806 -1.69394e-005 -1.41994e-006 -4.89893e-006 22.7266 10.5411 -1.26274 -2.12399e-007 -2.70325e-006 -3.00471 8.02977 -4.95134 0.697688 -68.486 -7.39206 4.88935 -136.153 54.6642 22.0534 -1.6458e-005 -4.39558e-006 2.91775e-006 -23.7192 4.26462 0.389938 4.9848e-006 4.83851e-007 2.99999 -8.02949 -4.95142 -0.697704 179.205 19.2523 -2.4656 180 7.01532e-015 178.86 175.881 22.6525 -179.562 1.64292e-007 1.71522e-006 0.606414 -23.1493 70.3739 21.9127 8.1356 25.2337 -3.48736 -179.323 15.6199 2.91803 4.54188e-006 -4.6773e-006 -0.950422 -0.266277 -23.3477 0.958038 -2.57903e-006 -9.23796e-006 -0.671985 22.4471 74.1407 -26.0786 -8.12525 25.2333 3.48295 
